# xmcd CD database file
#
# Track frame offsets:
#	150
#	36977
#	52227
#	69430
#	91825
#	113020
#
# Disc length: 1803 seconds
#
# Revision: 0
# Processed by: cddbd v1.5.1PL0 Copyright (c) Steve Scherf et al.
# Submitted via: CDex 1.50Beta7
#
DISCID=4c070906
DTITLE=ROLAND HANNA - GLOVE
DYEAR=1977
DGENRE=Jazz
TTITLE0=LOVE FOR SALE
TTITLE1=I LOVE YOU
TTITLE2=LOVE WALKED IN
TTITLE3=THERE IS NO GREATER LOVE
TTITLE4=MY ONE AND ONLY LOVE
TTITLE5=LOVER
EXTD=YEAR: 1977
EXTT0=
EXTT1=
EXTT2=
EXTT3=
EXTT4=
EXTT5=
PLAYORDER=
